<svg width="126" height="43" viewBox="0 0 126 43" fill="none" xmlns="http://www.w3.org/2000/svg">
<g id="Layer_1-2">
<g id="Group">
<path id="Vector" d="M104.897 0C116.478 0 125.873 9.62976 125.873 21.5C125.873 33.3702 116.478 43 104.897 43H20.9753C9.39474 43 0 33.3702 0 21.5C0 9.62976 9.39474 0 20.9753 0H104.897Z" fill="#FA0041"/>
<path id="Vector_2" d="M116.625 19.4103H107.273L103.805 23.6543H111.728C110.909 26.5626 108.197 28.717 104.919 28.717C101.64 28.717 97.9831 25.6363 97.9831 21.5C97.9831 17.3637 100.883 14.2615 104.919 14.2615C108.954 14.2615 108.849 15.2741 110.236 16.739L113.389 12.9043C111.224 10.6854 108.303 9.26355 104.919 9.26355C98.1512 9.26355 93.002 14.5631 93.002 21.5C93.002 28.4369 98.1512 33.715 104.919 33.715C111.686 33.715 115.638 29.3632 116.646 23.6759C116.752 22.965 116.815 22.2325 116.815 21.5216C116.815 20.8106 116.752 20.0997 116.646 19.4319L116.625 19.4103ZM83.5232 28.717C79.4878 28.717 76.5874 25.6363 76.5874 21.5C76.5874 17.3637 79.4878 14.2615 83.5232 14.2615C87.5585 14.2615 87.4534 15.2741 88.8405 16.739L91.9931 12.9043C89.8284 10.6854 86.907 9.26355 83.5232 9.26355C76.7556 9.26355 71.6063 14.5631 71.6063 21.5C71.6063 28.4369 76.7556 33.715 83.5232 33.715C90.2907 33.715 89.8914 32.3146 91.9931 30.0957L88.8405 26.261C87.4534 27.6613 85.814 28.717 83.5232 28.717ZM62.9262 19.4534V24.6022H58.7858L55.3179 28.8462H62.9262V33.3918H68.1175V13.1198L62.9262 19.4534ZM61.6441 9.65133L42.2031 33.3918H48.9287L68.3697 9.65133H61.6441Z" fill="white"/>
</g>
</g>
</svg>
